<svg xmlns="http://www.w3.org/2000/svg" id="a" viewBox="0 0 1015 1015"><path id="a" d="M838.28,380.27c-13.38-135.36-124.37-245.08-263.77-257.28h-299.08c-26.25,0-47.57,21.21-47.7,47.46-1.2,233.2-2.39,466.4-3.59,699.61-.14,26.44,21.26,47.95,47.7,47.95h102.86c24.66,0,45.25-18.79,47.5-43.35,11.45-124.75,22.89-249.51,34.34-374.26-43.84-29.69-66.46-88.34-40.37-148.47,10.44-24.06,29.57-43.41,53.58-53.98,86.02-37.84,169.22,24.14,169.22,105.56,0,40.38-20.47,75.98-51.6,96.99,6.71,56.71,13.42,113.43,20.14,170.14,1.2,10.14,11.21,16.74,21.03,13.93,134.16-38.42,223.25-167.79,209.75-304.31Z"/><style>@media (prefers-color-scheme:dark){#a path{fill:#fff}}@media (prefers-color-scheme:light){#a path{fill:#000}}</style></svg>